<svg id="Calque_2" data-name="Calque 2" xmlns="http://www.w3.org/2000/svg" viewBox="0 0 434.84 656.42"><defs><style>.cls-1{fill:#fff;stroke:#fff;stroke-miterlimit:10;}</style></defs><title>logo</title><path class="cls-1" d="M812.2,877.42c-.07.22-.14.43-.23.65-1.35,3.36-12.65,29.19-39.85,25.71-12.57-1.61-22.15-1.29-29.08-.34a8.62,8.62,0,0,1-9.35-11.3l215.47-637.6a8.62,8.62,0,0,1,16.37.11l104.38,324a8.62,8.62,0,0,1-12.19,10.28c-12.54-6.41-29.9-11.91-48.56-7.76A8.6,8.6,0,0,1,999,574.83L965,438.47a8.62,8.62,0,0,0-16.59-.47Z" transform="translate(-732.73 -248.18)"/><g id="Calque_1" data-name="Calque 1"><path class="cls-1" d="M1099.27,885.14a1,1,0,0,0,.07.18c.81,1.42,11.71,19.36,43.58,15.46a67.07,67.07,0,0,1,14.67-.4,8.62,8.62,0,0,0,9.09-11.11c-15.49-50.32-62-192.87-103.74-231.09-30.46-27.92-119.54-.63-143.21,7.31a1,1,0,0,0,.31,2c20.3,0,85.19,2.46,106.55,31.18C1054.13,735.64,1098,881.06,1099.27,885.14Z" transform="translate(-732.73 -248.18)"/></g></svg>